<?xml version="1.0" standalone="no"?><!DOCTYPE svg PUBLIC "-//W3C//DTD SVG 1.1//EN" "http://www.w3.org/Graphics/SVG/1.1/DTD/svg11.dtd"><svg t="1494594180384" class="icon" style="" viewBox="0 0 1027 1024" version="1.1" xmlns="http://www.w3.org/2000/svg" p-id="5159" xmlns:xlink="http://www.w3.org/1999/xlink" width="92.26953125" height="92"><defs><style type="text/css"></style></defs><path d="M966.730918 969.972564l-102.652128 24.492438c-52.946887 12.606402-55.82835 11.16567-68.434752-39.62012l-10.445304-38.539571 213.22828-50.78579 6.843475 25.572986C1021.47872 954.844882 1027.601829 955.205065 966.730918 969.972564L966.730918 969.972564zM649.409778 414.930707c-12.966585-51.145973-11.16567-53.30707 41.781217-65.913472l102.652128-24.492438c52.946887-12.606402 55.468167-11.16567 65.193106 26.653535l124.983468 461.394302L770.791418 863.358424 649.409778 414.930707 649.409778 414.930707zM504.256068 1000.948294l-63.752374 0c-54.387619 0-70.956032-1.800915-70.956032-54.387619L369.547661 146.954625l205.304256 0 0 799.966233C575.2121 999.14738 567.288076 1000.948294 504.256068 1000.948294L504.256068 1000.948294zM369.907844 77.439325c0-52.586704 16.208231-54.387619 70.956032-54.387619L504.256068 23.051706c54.387619 0 70.956032 1.800915 70.956032 54.387619l0 42.1414-205.304256 0L369.907844 77.439325 369.907844 77.439325zM228.716145 1000.948294 66.99402 1000.948294c-54.387619 0-56.908899-1.800915-56.908899-54.387619l0-45.743229 275.17974 0 0 45.743229C285.625044 999.14738 283.463947 1000.948294 228.716145 1000.948294L228.716145 1000.948294zM10.445304 825.899402l275.17974 0 0 47.544144L10.445304 873.443546 10.445304 825.899402 10.445304 825.899402zM10.445304 404.12522l275.17974 0 0 394.760464L10.445304 798.885684 10.445304 404.12522 10.445304 404.12522zM10.445304 281.302849C10.445304 228.716145 12.606402 226.91523 66.99402 226.91523l161.722125 0c54.387619 0 56.908899 1.800915 56.908899 54.387619l0 68.434752L10.445304 349.737601 10.445304 281.302849 10.445304 281.302849zM10.445304 281.302849" p-id="5160" fill="#e74f4d"></path></svg>