<?xml version="1.0" standalone="no"?><!DOCTYPE svg PUBLIC "-//W3C//DTD SVG 1.1//EN" "http://www.w3.org/Graphics/SVG/1.1/DTD/svg11.dtd"><svg t="1494594383427" class="icon" style="" viewBox="0 0 1024 1024" version="1.1" xmlns="http://www.w3.org/2000/svg" p-id="17126" xmlns:xlink="http://www.w3.org/1999/xlink" width="42" height="42"><defs><style type="text/css"></style></defs><path d="M512 32.064C247.296 32.064 32 247.36 32 512s215.296 479.936 480 479.936S992 776.64 992 512 776.704 32.064 512 32.064z m0 892.928c-227.712 0-413.056-185.28-413.056-412.992S284.288 99.008 512 99.008 925.056 284.288 925.056 512 739.712 924.992 512 924.992z" fill="#e74f4d" p-id="17127"></path><path d="M512 255.232c-141.504 0-256.704 115.2-256.704 256.768s115.2 256.768 256.704 256.768 256.704-115.2 256.704-256.768S653.504 255.232 512 255.232z m0 446.528c-104.64 0-189.76-85.12-189.76-189.76S407.36 322.24 512 322.24 701.76 407.36 701.76 512 616.64 701.76 512 701.76z" fill="#e74f4d" p-id="17128"></path></svg>