<?xml version="1.0" standalone="no"?><!DOCTYPE svg PUBLIC "-//W3C//DTD SVG 1.1//EN" "http://www.w3.org/Graphics/SVG/1.1/DTD/svg11.dtd"><svg t="1495108107838" class="icon" style="" viewBox="0 0 1024 1024" version="1.1" xmlns="http://www.w3.org/2000/svg" p-id="5055" xmlns:xlink="http://www.w3.org/1999/xlink" width="12" height="12"><defs><style type="text/css"></style></defs><path d="M510.459924 340.401784c46.010917 0 89.151459 17.801435 121.474632 50.124608 32.323173 32.323173 50.124608 75.462692 50.124608 121.473609 0 46.010917-17.801435 89.151459-50.124608 121.474632-32.323173 32.323173-75.463716 50.124608-121.474632 50.124608-46.009893 0-89.150436-17.801435-121.472586-50.124608-32.323173-32.323173-50.124608-75.463716-50.124608-121.474632 0-46.009893 17.801435-89.150436 50.124608-121.473609C421.309488 358.202195 464.450031 340.401784 510.459924 340.401784M510.459924 319.93566c-106.435101 0-192.063317 85.628216-192.063317 192.063317 0 106.437148 85.628216 192.065364 192.063317 192.065364 106.437148 0 192.065364-85.629239 192.065364-192.065364C702.525288 405.563876 616.896048 319.93566 510.459924 319.93566L510.459924 319.93566z" p-id="5056" fill="#929293"></path></svg>