<?xml version="1.0" standalone="no"?><!DOCTYPE svg PUBLIC "-//W3C//DTD SVG 1.1//EN" "http://www.w3.org/Graphics/SVG/1.1/DTD/svg11.dtd"><svg t="1495718935727" class="icon" style="" viewBox="0 0 1024 1024" version="1.1" xmlns="http://www.w3.org/2000/svg" p-id="7100" xmlns:xlink="http://www.w3.org/1999/xlink" width="25" height="25"><defs><style type="text/css"></style></defs><path d="M262.4 804c29.8 25.4 63 46 99.2 61.4 37.2 15.8 76.4 25.4 116.6 28.8-51.2-51.2-92.2-103.2-123.2-155.6C307.4 763.2 274.4 792.6 262.4 804L262.4 804zM262.4 804" p-id="7101" fill="#ffffff"></path><path d="M668 735.6c-31.2 53.4-72.8 106.2-124.8 158.4 40.6-3.4 79.8-13 117.4-28.8 37.8-16 72.4-37.8 103.2-64.6l-6.4-6C728 770.4 698.2 750.8 668 735.6L668 735.6zM668 735.6" p-id="7102" fill="#ffffff"></path><path d="M894.8 523.2 736 523.2c-3.8 63.4-22.2 126.4-55 189 31.4 16 62.4 36.4 92.8 61.2l-0.4-0.4 0.4 0.4c1.4 1.2 2.8 2.4 4.2 3.6l0 0 5.8 4.8c34.6-35 61.8-75.6 81-120.6C883.2 617.2 893.4 571 894.8 523.2L894.8 523.2zM894.8 523.2" p-id="7103" fill="#ffffff"></path><path d="M398 196.4c20.6-26.2 41-48 58-64.6-32.4 4.6-64 13.4-94.2 26.2-33.4 14-64.2 32.6-92 55.2 14 12.6 41.4 35.4 79 56C363 244.6 379.4 220.2 398 196.4L398 196.4zM398 196.4" p-id="7104" fill="#ffffff"></path><path d="M285.6 523.2l-158 0c1.4 47.8 11.4 94 30 137.8 19.4 45.8 47 86.8 82.2 122 1 1 1.8 1.8 2.8 2.8 12.2-12 47.2-43.8 99.4-71C308.4 651.6 289.6 587.6 285.6 523.2L285.6 523.2zM285.6 523.2" p-id="7105" fill="#ffffff"></path><path d="M379.6 726.8c29.6 49.6 68.8 99 117.4 147.8L497 698c-30.2 1.8-60.4 7.8-90.4 18.2C397.2 719.4 388.2 723 379.6 726.8L379.6 726.8zM379.6 726.8" p-id="7106" fill="#ffffff"></path><path d="M366.2 703.2c9.6-4.2 19.8-8.4 30.4-12 33.2-11.6 66.8-18.2 100.2-20l0-148-184.4 0C316.6 583.4 334.4 643.4 366.2 703.2L366.2 703.2zM366.2 703.2" p-id="7107" fill="#ffffff"></path><path d="M864.8 362.2c-19.4-45.8-47-86.8-82.2-122-0.2-0.2-0.4-0.2-0.4-0.4-1 0-1.8 0-2.8 0.2-29.4 24.4-59.4 44.8-89.8 60.8 2.4 5 4.8 10.2 7.2 15.4 23 51.6 36.4 104.4 39.4 157.2 0.4 7.6 0.6 15.2 0.6 22.8l157.8 0C892.8 449.8 882.8 404.8 864.8 362.2L864.8 362.2zM864.8 362.2" p-id="7108" fill="#ffffff"></path><path d="M285.4 473.4c3-52.8 16.4-105.8 39.4-157.2 2.8-6 5.6-12.2 8.6-18.2-43.2-23.6-73.6-49.4-88.2-63-1.8 1.8-3.8 3.6-5.6 5.4-35.2 35.2-63 76.2-82.2 122-18 42.6-28 87.6-29.8 134l157.2 0C284.8 488.6 285 481 285.4 473.4L285.4 473.4zM285.4 473.4" p-id="7109" fill="#ffffff"></path><path d="M565.6 701.6c-13.6-2.2-27.4-3.6-41-4l0 176.8c49.4-49.6 89.2-99.8 118.8-150.2C617.6 713.4 591.6 706 565.6 701.6L565.6 701.6zM565.6 701.6" p-id="7110" fill="#ffffff"></path><path d="M656.6 700.6c31-58.8 48.4-118.2 52.4-177.4l-184.4 0 0 147.6c15 0.4 29.8 1.8 44.6 4.2C598.6 679.6 627.8 688.2 656.6 700.6L656.6 700.6zM656.6 700.6" p-id="7111" fill="#ffffff"></path><path d="M709.2 475.2c-2.8-49.4-15.2-99-36.8-147.4-2.2-5-4.6-10-7-15-31.6 14.2-63.4 24-95.6 29.2-15 2.4-30 3.8-45 4.2l0 150 185.2 0C709.8 489.2 709.6 482.2 709.2 475.2L709.2 475.2zM709.2 475.2" p-id="7112" fill="#ffffff"></path><path d="M623.6 196.4c19.4 24.6 36.4 50 51 75.8 27.8-14.6 55.2-33.2 82.2-55.6-29-24.2-61.2-43.8-96.2-58.6-30.6-13-62.4-21.8-95-26.4C582.4 148.4 602.8 170 623.6 196.4L623.6 196.4zM623.6 196.4" p-id="7113" fill="#ffffff"></path><path d="M418.6 213.8c-17.2 22-32.6 44.8-45.8 67.8 11 5 22.6 9.8 34.8 14 29.6 10.2 59.4 16.2 89.4 17.8L497 130.6C478.2 147 448.6 175.4 418.6 213.8L418.6 213.8zM418.6 213.8" p-id="7114" fill="#ffffff"></path><path d="M650.2 284c-13.6-24-29.4-47.4-47.4-70.4-30-38.2-59.6-66.6-78.2-83.2l0 183.2c13.6-0.4 27.2-1.8 40.6-4C593.8 305.2 622.2 296.6 650.2 284L650.2 284zM650.2 284" p-id="7115" fill="#ffffff"></path><path d="M357.6 310c-3 5.8-5.6 11.8-8.4 17.6-21.6 48.4-34 98-36.8 147.4-0.4 7-0.6 14-0.6 21l185.2 0 0-150.4c-33.8-1.8-67.6-8.4-101.2-20.2C382.4 321 369.6 315.6 357.6 310L357.6 310zM357.6 310" p-id="7116" fill="#ffffff"></path></svg>