<?xml version="1.0" standalone="no"?><!DOCTYPE svg PUBLIC "-//W3C//DTD SVG 1.1//EN" "http://www.w3.org/Graphics/SVG/1.1/DTD/svg11.dtd"><svg t="1494594611824" class="icon" style="" viewBox="0 0 1024 1024" version="1.1" xmlns="http://www.w3.org/2000/svg" p-id="28134" xmlns:xlink="http://www.w3.org/1999/xlink" width="42" height="42"><defs><style type="text/css"></style></defs><path d="M687.519116 638.286196C527.947567 638.286196 469.462501 542.568834 267.353453 542.568834 208.77251 542.568834 162.751475 562.543241 129.034674 584.435192L129.034674 990.698667C129.034674 1008.308105 114.748978 1022.625761 97.107581 1022.625761 79.498143 1022.625761 65.212447 1008.308105 65.212447 990.698667L65.212447 640.970756 65.212447 416.234699 65.212447 98.433882C65.212447 98.433882 144.982242 0 275.311257 0 477.420305 0 519.989763 95.749321 679.561312 95.749321 839.132861 95.749321 958.787553 0 958.787553 0L958.787553 542.568834C958.787553 542.568834 847.090665 638.286196 687.519116 638.286196ZM894.965326 110.802035C839.228738 136.081645 764.572392 159.571549 679.561312 159.571549 591.322368 159.571549 533.700197 134.739365 477.963609 110.738117 422.035267 86.609032 369.174995 63.854187 275.311257 63.854187 205.448769 63.854187 153.067882 102.492681 129.034674 124.352673L129.034674 416.234699 129.034674 510.801536C166.522643 492.457039 212.799351 478.714647 267.353453 478.714647 386.720514 478.714647 461.664492 508.852033 527.723854 535.441965 581.958366 557.238039 624.783496 574.463968 687.519116 574.463968 782.50142 574.463968 858.915514 533.556381 894.965326 510.034518L894.965326 110.802035Z" p-id="28135" fill="#e74f4d"></path></svg>