<?xml version="1.0" standalone="no"?><!DOCTYPE svg PUBLIC "-//W3C//DTD SVG 1.1//EN" "http://www.w3.org/Graphics/SVG/1.1/DTD/svg11.dtd"><svg t="1494594683768" class="icon" style="" viewBox="0 0 1024 1024" version="1.1" xmlns="http://www.w3.org/2000/svg" p-id="30969" xmlns:xlink="http://www.w3.org/1999/xlink" width="42" height="42"><defs><style type="text/css"></style></defs><path d="M916.667733 928.426667c-165.973333-68.266667-306.2784-15.36-381.576533 27.306667l0-160.426667c147.1488-8.533333 287.470933-93.866667 355.908267-216.746667 82.1248-131.413333 104.379733-310.613333 53.0432-433.493333-10.257067-22.186667-44.4928-32.426667-100.949333-32.426667-47.906133 0-106.0864 8.533333-143.735467 30.72-53.0432-87.04-99.242667-114.346667-150.5792-136.533333C536.814933 0 516.283733 0 511.146667 0c-13.687467 0-25.668267 1.706667-32.512 6.826667-61.5936 23.893333-107.793067 54.613333-153.992533 139.946667-39.355733-22.186667-95.812267-30.72-143.735467-30.72-58.180267 0-92.398933 11.946667-100.949333 34.133333C28.6208 273.066667 50.858667 450.56 133.000533 581.973333c68.437333 122.88 210.466133 208.213333 355.908267 216.746667L488.9088 955.733333c-75.281067-44.373333-213.879467-97.28-379.869867-27.306667-11.9808 5.12-17.117867 20.48-11.9808 32.426667l0 0c5.137067 11.946667 18.824533 17.066667 30.805333 11.946667 177.954133-73.386667 321.6896 11.946667 369.595733 46.097067 5.137067 3.413333 10.274133 5.12 15.394133 5.12 5.137067 0 10.257067-1.706667 15.394133-5.12 47.906133-35.84 191.6416-119.466667 369.595733-46.097067 11.9808 5.12 25.668267 0 30.805333-11.946667l0 0C935.492267 947.2 930.3552 933.546667 916.667733 928.426667L916.667733 928.426667zM174.062933 554.666667C102.1952 438.613333 79.957333 276.48 122.7264 170.666667 129.570133 167.253333 148.394667 163.84 180.906667 163.84c59.886933 0 114.653867 15.36 133.461333 35.84l23.9616 27.306667 15.394133-32.426667c49.6128-100.693333 90.692267-124.586667 143.735467-143.36 1.706667-1.706667 6.843733-1.706667 13.687467-1.706667 6.843733 0 13.687467 1.706667 15.394133 1.706667l1.706667 0c51.336533 22.186667 90.692267 44.373333 142.011733 143.36l17.117867 32.426667 23.9616-29.013333c17.117867-20.48 71.867733-35.84 131.754667-35.84 32.512 0 51.336533 5.12 58.180267 6.826667 42.769067 107.52 22.237867 267.946667-51.336533 385.706667-63.317333 114.346667-201.915733 192.853333-337.083733 192.853333l0 23.893333 0 0 0-23.893333C377.685333 749.226667 237.3632 669.013333 174.062933 554.666667L174.062933 554.666667z" p-id="30970" fill="#e74f4d"></path></svg>