<?xml version="1.0" standalone="no"?><!DOCTYPE svg PUBLIC "-//W3C//DTD SVG 1.1//EN" "http://www.w3.org/Graphics/SVG/1.1/DTD/svg11.dtd"><svg t="1495105274212" class="icon" style="" viewBox="0 0 1024 1024" version="1.1" xmlns="http://www.w3.org/2000/svg" p-id="2852" xmlns:xlink="http://www.w3.org/1999/xlink" width="17" height="17"><defs><style type="text/css"></style></defs><path d="M268.260743 828.802296" p-id="2853" fill="#e74f4d"></path><path d="M591.676667 609.136318" p-id="2854" fill="#e74f4d"></path><path d="M667.757436 683.418115" p-id="2855" fill="#e74f4d"></path><path d="M796.290835 548.310997" p-id="2856" fill="#e74f4d"></path><path d="M930.034908 424.988274" p-id="2857" fill="#e74f4d"></path><path d="M247.095701 424.988274" p-id="2858" fill="#e74f4d"></path><path d="M692.548052 516.400217" p-id="2859" fill="#e74f4d"></path><path d="M671.152766 609.15883c65.493643-48.745191 108.1123-126.515439 108.1123-214.434837 0-147.700947-119.736035-267.435958-267.436982-267.435958S244.392126 247.023046 244.392126 394.723993c0 87.919399 42.61661 165.689646 108.1123 214.434837C249.889327 664.289452 179.686429 771.109316 175.437661 894.713448l73.081459 0c6.128581-140.310629 121.488958-252.269537 263.309988-252.269537 141.818983 0 257.180384 111.958908 263.309988 252.269537l73.081459 0C843.969741 771.109316 773.765819 664.289452 671.152766 609.15883zM604.694145 582.394257c-29.53364-8.453533-60.614519-13.255908-92.865038-13.255908s-63.331397 4.802376-92.867084 13.255908c-69.094658-34.262338-116.712165-105.318674-116.712165-187.670264 0-115.748211 93.832062-209.578226 209.579249-209.578226s209.577203 93.831039 209.577203 209.578226C721.406311 477.074559 673.789826 548.131919 604.694145 582.394257z" p-id="2860" fill="#e74f4d"></path></svg>