<?xml version="1.0" standalone="no"?><!DOCTYPE svg PUBLIC "-//W3C//DTD SVG 1.1//EN" "http://www.w3.org/Graphics/SVG/1.1/DTD/svg11.dtd"><svg t="1495719311000" class="icon" style="" viewBox="0 0 1024 1024" version="1.1" xmlns="http://www.w3.org/2000/svg" p-id="12499" xmlns:xlink="http://www.w3.org/1999/xlink" width="25" height="25"><defs><style type="text/css"></style></defs><path d="M224.504 470.836 222.972 466.12 221.756 459.924 220.9 456.536 220.9 452.29 220.9 447.21 220.9 442.606 222.342 437.156 223.874 431.334 225.856 425.286 228.512 418.506 232.026 411.48 237.026 404.43 237.026 399.476 237.522 394.87 238.242 388.564 240.36 381.548 242.342 373.912 243.918 370.388 245.72 367.132 248.062 363.496 250.54 360.816 250.54 355.872 250.54 350.276 250.54 343.384 252.026 334.396 253.512 323.98 256.126 311.502 259.728 298.542 262.432 291.39 265.088 283.632 268.018 276.368 271.53 268.622 275.088 260.13 279.188 252.146 283.784 243.654 289.594 235.164 292.25 230.322 295.134 226.324 301.35 217.36 307.746 208.396 315.042 199.184 322.836 190.208 331.26 181.38 340.088 172.282 350.764 162.472 357.566 156.528 365.808 150.108 374.188 144.422 383.242 138.97 391.934 134.128 401.754 130.13 412.16 125.142 422.52 121.764 432.88 118.25 444.05 114.748 455.222 112.08 466.978 109.884 478.872 107.958 490.582 106.38 502.338 104.782 514.864 104.084 526.754 104.084 539.05 104.084 551.796 104.084 564.14 105.638 576.528 107.114 589.14 108.442 600.852 111.234 613.238 113.88 624.816 116.9 637.562 120.3 649.184 124.432 660.356 129.152 672.246 134.128 683.102 139.58 693.688 145.616 704.004 152.304 712.922 158.476 717.066 161.988 721.39 164.522 729.68 171.56 736.66 178.352 743.598 185.378 750.398 193.136 755.984 200.648 762.606 208.396 767.246 216.752 771.93 224.15 776.93 232.766 781.032 240.264 788.012 256.144 791.48 264.376 794.136 272 796.796 280.242 799.184 288 800.894 294.668 803.056 302.54 806.84 316.592 809.274 328.834 810.804 340.714 812.156 350.276 814.316 364.814 814.812 367.132 816.526 369.792 821.12 377.302 824.046 382.38 826.706 387.718 830.082 393.406 833.012 400.208 834.902 407.234 837.02 414.858 838.598 422.718 839.316 426.604 839.95 431.334 839.95 435.456 839.316 439.576 839.316 444.678 838.102 449.632 835.894 459.204 833.372 464.046 831.524 469.498 831.524 470.836 832.38 472.538 834.902 476.536 845.804 492.662 854.454 504.756 858.55 512.886 864.136 521.726 869.002 531.422 874.588 541.828 880.128 553.468 886.434 566.682 889.948 574.79 893.192 582.66 896.028 591.028 898.778 598.54 900.848 606.41 903.012 613.82 905.712 628.234 907.83 643.01 909.316 656.094 909.316 663.234 909.316 669.054 909.316 674.506 908.326 681.072 906.93 692.332 904.992 702.502 901.974 711.704 900.848 715.454 898.778 719.946 897.02 723.098 894.678 726.972 892.606 729.416 889.948 732.554 887.606 735.102 885.128 737.278 882.11 738.606 879.406 739.934 877.2 740.654 875.262 740.654 873.82 740.654 871.66 739.934 867.516 737.882 865.626 736.554 863.64 735.102 861.48 733.154 859.316 730.968 855.714 726.972 851.39 721.296 848.012 715.454 844.678 710.744 841.39 705.292 836.75 695.598 831.524 685.532 830.94 685.17 830.082 685.17 827.922 686.758 826.706 689.404 824.678 692.682 821.12 702.502 815.804 716.432 808.912 733.154 803.778 741.522 798.372 750.238 791.93 760.046 785.128 769.64 781.66 773.986 777.426 778.708 767.696 788.29 768.552 789.126 769.904 790.472 774.722 793.368 794.95 803.074 803.778 808.032 812.156 812.872 820.488 818.942 827.922 825.248 831.524 828.032 834.226 831.292 837.02 835.068 839.316 839.192 840.536 842.568 842.066 846.69 842.696 850.204 843.418 854.324 842.696 857.094 842.696 859.886 842.066 862.804 840.536 865.46 839.95 867.534 838.598 870.066 834.902 875.044 831.524 879.042 828.912 882.06 826.706 884.256 821.12 888.356 814.812 891.902 808.056 895.282 800.894 898.546 792.786 901.69 788.508 903.04 784.632 904.11 775.356 906.306 765.67 908.356 755.984 910.428 745.446 912.126 734.5 912.602 723.376 913.93 712.336 913.93 700.67 913.93 688.734 913.93 676.21 913.208 664.59 912.126 652.066 910.428 639.634 909.088 626.528 907.264 613.824 904.11 601.438 901.69 589.14 898.176 576.528 893.694 564.14 889.932 557.61 887.782 551.796 885.688 548.148 884.256 544.5 883.536 539.772 883.536 534.23 883.536 522.34 882.668 516.3 882.06 508.554 881.206 503.554 885.688 496.754 889.932 487.564 894.426 477.384 900 471.212 903.04 464.772 905.44 450.492 911.26 442.746 913.208 434.636 915.392 423.33 917.566 416.304 918.164 408.826 918.772 401.034 919.626 391.934 920 383.242 920 374.188 920 354.908 920 333.962 919.626 313.692 917.566 303.376 916.126 293.466 914.65 283.784 913.208 274.098 911.26 265.088 908.356 256.126 906.306 248.062 903.04 240.36 900 233.288 896.598 227.072 892.85 220.9 888.356 218.784 886.182 216.036 883.536 213.962 881.206 212.072 878.546 210.36 875.888 209.008 873.22 207.072 867.534 206.352 864.628 205.496 861.34 205.496 858.322 206.352 854.944 206.352 851.52 207.072 848.13 207.072 846.082 207.072 841.352 207.386 837.714 209.008 833.592 210.36 829.468 212.792 824.504 214.594 822.578 216.036 820.382 219.91 815.664 222.972 813.244 225.856 811.542 228.512 809.372 232.792 808.032 236.17 805.98 240.36 803.792 245.224 802.354 250.044 800.878 255.63 799.662 260.99 798.954 267.296 798.11 274.098 797.614 275.9 797.006 276.26 797.006 277.116 796.262 277.116 795.442 275.9 793.74 272.25 792.04 263.198 784.156 257.116 779.314 250.044 773.14 242.972 766.25 235.54 757.386 227.072 747.464 223.874 742.122 219.684 736.554 216.036 730.114 212.792 723.098 208.378 716.432 205.496 708.808 202.118 701.172 198.694 692.682 196.17 684.574 193.874 674.506 193.108 674.146 192.432 674.146 192.072 673.426 191.17 673.426 189.774 674.146 189.008 674.506 188.018 676.208 187.658 678.268 186.936 680.092 185.63 683.11 181.486 690.508 179.324 695.002 175.946 698.876 172.296 703.582 168.288 708.808 164.054 713.414 159.1 717.882 154.458 722.122 149.414 725.418 143.83 728.92 138.514 730.968 132.208 732.554 125.992 733.154 125.406 733.154 124.55 733.154 123.108 732.554 122.028 730.114 120.18 728.92 117.792 723.098 116.306 719.946 114.73 715.454 113.424 710.744 112.704 706.136 110.766 695.598 110 689.404 110 683.11 110 669.054 110.766 653.92 111.982 646.162 113.424 638.166 114.73 629.562 117.072 621.568 119.686 612.344 122.388 603.39 125.992 594.17 129.414 585.33 134.1 576.368 138.514 566.682 143.83 557.594 150.134 547.774 156.532 538.934 163.198 529.126 168.784 522.334 175.946 514.46 183.424 506.58 186.936 502.83 191.17 498.584 197.342 493.236 203.648 487.796 213.962 478.584 221.756 472.91Z" p-id="12500" fill="#ffffff"></path></svg>