<?xml version="1.0" standalone="no"?><!DOCTYPE svg PUBLIC "-//W3C//DTD SVG 1.1//EN" "http://www.w3.org/Graphics/SVG/1.1/DTD/svg11.dtd"><svg t="1495719078782" class="icon" style="" viewBox="0 0 1024 1024" version="1.1" xmlns="http://www.w3.org/2000/svg" p-id="8798" xmlns:xlink="http://www.w3.org/1999/xlink" width="25" height="25"><defs><style type="text/css"></style></defs><path d="M802.788318 523.380188c14.502295 11.277858 24.708751 24.840758 30.614252 40.684608 5.90857 15.842827 8.325619 32.360012 7.252171 49.54644-1.075495 17.186428-4.835122 34.372855-11.278881 51.560306-6.443759 17.186428-14.770402 32.762171-24.972764 46.725184-18.261922 25.242917-38.939871 46.726208-62.033845 64.449871s-46.995337 32.494065-71.699995 44.310182c-24.706705 11.81407-49.54644 21.081131-74.519204 27.792996-24.973788 6.712889-48.471968 11.682064-70.493517 14.903431-22.021549 3.222391-41.758056 5.235235-59.21259 6.040576s-31.017434 1.210571-40.684608 1.210571-22.557762-0.671289-38.670741-2.015913c-16.110933-1.341554-33.969673-4.027733-53.574173-8.054443-19.602454-4.02978-40.145325-9.668197-61.630662-16.919345-21.48329-7.249101-42.429345-16.782222-62.838164-28.598338s-39.878243-26.318412-58.408271-43.502793c-18.526959-17.189498-34.237779-37.864376-47.12939-62.033845-8.591679-15.576767-14.366196-32.225959-17.320481-49.949622-2.955308-17.72264-4.430916-40.281425-4.430916-67.674309 0-11.816117 2.013867-25.240871 6.040576-40.280402 4.02978-15.036461 11.145851-31.688723 21.348214-49.948599 10.205433-18.261922 24.169469-38.132482 41.892109-59.616796 17.72264-21.48329 40.280402-45.1145 67.673286-70.894653 26.854625-25.242917 54.646598-47.665603 83.380012-67.26908 28.735461-19.603477 59.482743-34.776038 92.245937-45.517683 15.037485-5.371334 31.688723-8.324596 49.949622-8.861832s33.298384 2.417049 45.1145 8.861832c5.371334 5.907547 10.473539 11.95017 15.307637 18.126846 4.835122 6.175653 8.055466 13.829983 9.667174 22.960944 1.610684 7.519254 1.744737 14.769378 0.402159 21.75242-1.342578 6.980995-2.819209 13.964036-4.430916 20.946055-1.609661 6.980995-2.954285 13.694907-4.027733 20.140713-1.074472 6.445806-0.537236 12.353352 1.610684 17.723663 9.129938 1.075495 17.992793 0.671289 26.584472-1.209548 8.592702-1.87879 16.918321-4.295839 24.973788-7.250124 8.05649-2.953262 16.247033-6.0416 24.572652-9.265014 8.325619-3.221368 17.052374-5.638417 26.182312-7.250124 14.501272-2.685155 28.868491-3.894703 43.100634-3.625574 14.232143 0.26913 27.123754 2.281973 38.669718 6.042623 11.54801 3.759627 21.082154 9.532097 28.600385 17.320481 7.519254 7.78736 12.084223 17.857716 13.69593 30.211069 1.074472 7.519254 0.536212 14.501272-1.611707 20.946055-2.148943 6.443759-4.430916 12.487406-6.845918 18.125823-2.416026 5.640464-4.296863 11.413957-5.641487 17.322527-1.342578 5.906523-0.939395 12.085246 1.210571 18.527982 1.610684 3.76065 5.505387 7.251148 11.682064 10.472516 6.175653 3.221368 13.290701 6.444782 21.347191 9.667174 8.055466 3.221368 16.517185 6.714935 25.377994 10.471492C788.689205 514.25025 796.344558 518.54609 802.788318 523.380188L802.788318 523.380188zM599.771531 773.930571c13.964036-8.592702 28.063149-20.408819 42.295292-35.44835 14.231119-15.038508 25.77913-31.822776 34.641985-50.351781s13.831007-38.401612 14.904455-59.615773c1.073448-21.215184-4.296863-42.563398-16.112979-64.048735-10.206456-17.721617-22.692838-32.763195-37.461193-45.113477-14.769378-12.354376-31.284517-22.155603-49.54644-29.404704-18.260899-7.252171-37.7293-12.488429-58.407248-15.711843-20.677948-3.222391-41.759079-4.834098-63.241346-4.834098-41.355897 0-78.011748 4.295839-109.967554 12.890588-31.956829 8.593725-59.617819 19.871583-82.9799 33.835619-23.363104 13.966083-42.295292 29.809933-56.796564 47.53155-14.502295 17.72264-24.706705 35.71441-30.614252 53.977355-5.906523 17.72264-7.653307 35.31225-5.236258 52.768831 2.417049 17.455557 7.921413 33.968649 16.516162 49.544393 8.592702 15.576767 19.738553 29.53978 33.434483 41.893132 13.69593 12.350283 28.867468 22.288632 45.515636 29.807886 30.614252 13.426801 61.898769 21.88545 93.855598 25.37697 31.956829 3.489474 62.437028 3.625574 91.439572 0.403183 29.001521-3.221368 55.45194-8.861832 79.353302-16.916275C565.262576 792.459576 584.734046 783.597745 599.771531 773.930571L599.771531 773.930571zM494.233869 519.353478c10.740622 4.295839 20.947078 9.129938 30.613228 14.500249 9.667174 5.370311 18.261922 12.621459 25.77913 21.751397 5.371334 6.445806 10.070356 14.502295 14.098089 24.169469 4.027733 9.66615 6.846942 20.006659 8.459672 31.017434s2.01489 22.154579 1.210571 33.43346c-0.806365 11.277858-3.357468 21.48329-7.653307 30.613228-4.296863 9.667174-9.533121 19.4684-15.71082 29.405727-6.175653 9.93528-13.696953 19.201318-22.557762 27.792996-8.860808 8.592702-19.467377 16.247033-31.822776 22.960944-12.354376 6.714935-27.39186 11.682064-45.115524 14.903431-32.224935 5.906523-63.107293 2.954285-92.648097-8.861832-29.538757-11.816117-52.633754-31.41857-69.282946-58.810431-6.444782-20.947078-9.936303-39.47506-10.471492-55.588039-0.537236-16.112979 3.759627-33.567513 12.889565-52.364625 6.983041-14.502295 17.588587-28.063149 31.822776-40.684608s30.614252-22.827915 49.142234-30.615275c18.527982-7.786337 38.267559-12.352329 59.214636-13.69593C453.147102 507.939521 473.825051 511.295965 494.233869 519.353478L494.233869 519.353478zM366.139469 717.53719c19.872606 1.609661 35.044144-3.223415 45.517683-14.500249 10.472516-11.279904 16.112979-23.901363 16.918321-37.866423 0.804319-13.964036-3.221368-26.451442-12.085246-37.46017-8.861832-11.010775-22.692838-15.443737-41.48995-13.292748-14.501272 1.610684-25.780153 7.786337-33.836643 18.529005-8.05342 10.740622-12.620435 22.153556-13.694907 34.236755-1.074472 12.08627 1.476631 23.230074 7.653307 33.435507C341.299735 710.823278 351.638197 716.461695 366.139469 717.53719L366.139469 717.53719zM695.640995 120.569006c39.206954 0 75.863828 5.236258 109.967554 15.70775 34.104749 10.474562 63.912635 25.647123 89.425705 45.517683 25.512047 19.87363 45.51666 44.041052 60.017932 72.505337 14.501272 28.466332 21.75242 60.692291 21.75242 96.676853 0 17.723663-4.295839 31.017434-12.891611 39.879266-8.591679 8.860808-17.856693 13.426801-27.792996 13.694907-9.936303 0.26913-19.201318-3.491521-27.792996-11.277858-8.592702-7.786337-12.891611-19.738553-12.891611-35.849486 0-21.48329-5.907547-41.893132-17.72264-61.228503-11.81714-19.335371-27.392884-36.253692-46.727231-50.753941-19.335371-14.502295-41.48995-25.914206-66.461691-34.239825-24.974811-8.325619-50.351781-12.486382-76.131935-12.486382-16.649192 0-29.002544-4.028757-37.059034-12.08627-8.055466-8.054443-11.815093-17.051351-11.277858-26.987654 0.537236-9.93528 5.506411-18.932188 14.903431-26.987654C664.355455 124.596739 677.916309 120.569006 695.640995 120.569006L695.640995 120.569006zM695.640995 249.467725c49.950645 0 87.812975 12.756535 113.593128 38.267559 25.780153 25.511024 38.669718 64.046688 38.669718 115.608018 0 16.111956-2.685155 27.522844-8.055466 34.237779-5.371334 6.712889-11.277858 9.667174-17.72264 8.860808-6.445806-0.803295-12.352329-4.700045-17.72264-11.680017-5.372358-6.982018-8.05649-16.381086-8.05649-28.197202 0-31.688723-9.130961-56.93164-27.39186-75.728752-18.262946-18.798135-42.699498-28.197202-73.313749-28.197202-10.204409 0-17.723663-2.820232-22.556739-8.460696-4.835122-5.638417-7.251148-11.68104-7.251148-18.125823 0-6.444782 2.550079-12.487406 7.653307-18.126846C678.589644 252.28591 685.972798 249.467725 695.640995 249.467725z" p-id="8799" fill="#ffffff"></path></svg>