<?xml version="1.0" standalone="no"?><!DOCTYPE svg PUBLIC "-//W3C//DTD SVG 1.1//EN" "http://www.w3.org/Graphics/SVG/1.1/DTD/svg11.dtd"><svg t="1494594723315" class="icon" style="" viewBox="0 0 1024 1024" version="1.1" xmlns="http://www.w3.org/2000/svg" p-id="32063" xmlns:xlink="http://www.w3.org/1999/xlink" width="42" height="42"><defs><style type="text/css"></style></defs><path d="M319.435492 447.206894 127.773398 447.206894C57.313254 447.206894 0 389.89364 0 319.433496L0 127.773398C0 57.313254 57.313254 0 127.773398 0l191.662094 0c70.458148 0 127.771402 57.313254 127.771402 127.7724l0 191.661096C447.206894 389.89364 389.89364 447.206894 319.435492 447.206894L319.435492 447.206894zM127.773398 85.179271c-23.480725 0-42.592131 19.118393-42.592131 42.594128l0 191.661096c0 23.474736 19.117395 42.588138 42.592131 42.588138l191.662094 0c23.474736 0 42.58714-19.113402 42.58714-42.588138L362.022632 127.773398c0-23.480725-19.111406-42.594128-42.58714-42.594128L127.773398 85.179271 127.773398 85.179271zM127.773398 85.179271" p-id="32064" fill="#e74f4d"></path><path d="M319.435492 1022.203159 127.773398 1022.203159C57.313254 1022.203159 0 964.889904 0 894.430758L0 702.775652c0-70.459146 57.313254-127.77839 127.7724-127.77839l191.662094 0c70.458148 0 127.771402 57.319244 127.771402 127.77839l0 191.655106C447.206894 964.889904 389.89364 1022.203159 319.435492 1022.203159L319.435492 1022.203159zM127.773398 660.181525c-23.480725 0-42.592131 19.113402-42.592131 42.594128l0 191.655106c0 23.480725 19.117395 42.594128 42.592131 42.594128l191.662094 0c23.474736 0 42.58714-19.113402 42.58714-42.594128L362.022632 702.775652c0-23.480725-19.111406-42.594128-42.58714-42.594128L127.773398 660.181525 127.773398 660.181525zM127.773398 660.181525" p-id="32065" fill="#e74f4d"></path><path d="M894.408797 447.206894 702.752693 447.206894c-70.459146 0-127.7724-57.313254-127.7724-127.7724L574.980292 127.773398C574.979294 57.313254 632.293547 0 702.752693 0l191.656105 0c70.459146 0 127.7724 57.313254 127.7724 127.7724l0 191.661096C1022.182195 389.89364 964.868941 447.206894 894.408797 447.206894L894.408797 447.206894zM702.752693 85.179271c-23.480725 0-42.592131 19.118393-42.592131 42.594128l0 191.661096c0 23.474736 19.111406 42.588138 42.592131 42.588138l191.656105 0c23.480725 0 42.592131-19.113402 42.592131-42.588138L937.000928 127.773398c0-23.480725-19.111406-42.594128-42.592131-42.594128L702.752693 85.179271 702.752693 85.179271zM702.752693 85.179271" p-id="32066" fill="#e74f4d"></path><path d="M852.860831 1022.203159 702.752693 1022.203159c-70.459146 0-127.7724-57.313254-127.7724-127.7724L574.980292 702.775652c0-70.459146 57.313254-127.77839 127.7724-127.77839l191.656105 0c70.459146 0 127.7724 57.319244 127.7724 127.77839l0 128.643868c0 23.519657-19.067483 42.592131-42.588138 42.592131-23.519657 0-42.592131-19.073472-42.592131-42.592131l0-128.643868c0-23.480725-19.111406-42.594128-42.586142-42.594128L702.752693 660.181525c-23.480725 0-42.592131 19.113402-42.592131 42.594128l0 191.655106c0 23.480725 19.111406 42.594128 42.592131 42.594128L852.860831 937.024886c23.519657 0 42.586142 19.067483 42.586142 42.592131C895.446972 1003.135676 876.380487 1022.203159 852.860831 1022.203159L852.860831 1022.203159zM852.860831 1022.203159" p-id="32067" fill="#e74f4d"></path></svg>